<svg id="Layer_1" data-name="Layer 1" xmlns="http://www.w3.org/2000/svg" viewBox="0 0 481.96 270.83"><defs><style>.cls-1{fill:#f58125;}.cls-2{stroke:#f58125;stroke-width:5px;}.cls-2,.cls-5{stroke-miterlimit:10;}.cls-3,.cls-5{fill:none;}.cls-4{fill:#fff;}.cls-5{stroke:#000;stroke-width:4px;}</style></defs><path class="cls-1" d="M611,177l-24,39s3,14,12,16h61s10-5,9-14l-23-41s-4,7-12,8-11-5-11-5S618,171,611,177Z" transform="translate(-249.98 -126.17)"/><rect x="52.44" width="36.21" height="121.72"/><polygon points="36.2 0 0 0 0 121.72 36.2 121.72 36.2 75.62 46.28 75.62 46.28 43.52 36.2 43.52 36.2 0"/><path d="M412.28,203.85q0,11.15-7.67,11.14-7.94,0-7.93-11.14V126.17H360.47v77.77q0,22.73,10.92,34.86t31.53,12.13q20.68,0,33.13-12.48t12.44-33.36V126.17H412.28Z" transform="translate(-249.98 -126.17)"/><path class="cls-1" d="M470.51,126.17h44.23q39.33,0,39.33,31,0,15.33-13.47,25.5,19.53,8.48,19.53,30.23,0,16.68-11.5,26.58a33.06,33.06,0,0,1-12,6.6q-6.42,1.86-17.3,1.87h-6.87V216.6h6.16q5.43,0,7.67-1.38c1.48-.93,2.23-2.55,2.23-4.86q0-5.9-9.1-5.89h-7V172q10,0,10-6.87,0-6.33-9-6.33h-6.69V247.9h0v76.6q0,8.46,2.72,11.28t10.75,2.8H522V373.9H512.4q-19.8,0-30.86-11.55t-11.05-32.06Z" transform="translate(-249.98 -126.17)"/><path d="M578.48,249.14q-22.22,0-34.47,12.44t-12.26,34.91V373.9H568v-29h10.44V312.81H568V297.65Q568,285,576.43,285q4.37,0,6.06,2.77t1.69,9.89V373.9h36.21V295.25q0-23.55-10.26-34.83T578.48,249.14Z" transform="translate(-249.98 -126.17)"/><path d="M712.42,308.62q13.46-10.15,13.46-25.5,0-30.94-39.32-31H642.33V373.9h36.2V284.81h6.69q9,0,9,6.33,0,6.87-10,6.87v32.46h7q9.1,0,9.1,5.89c0,2.31-.75,3.93-2.23,4.86s-4,1.38-7.67,1.38h-6.15v31.3h6.86q10.89,0,17.3-1.87a32.9,32.9,0,0,0,12-6.6q11.5-9.9,11.51-26.58Q732,317.1,712.42,308.62Z" transform="translate(-249.98 -126.17)"/><line class="cls-2" x1="212.02" y1="141.83" x2="0.02" y2="141.83"/><line class="cls-2" x1="469.02" y1="265.83" x2="240.02" y2="265.83"/><polygon class="cls-1" points="6.14 154.82 8.28 158.86 132.85 158.86 134.99 154.82 6.14 154.82"/><path d="M261.77,290.91h54.88v79.46L284,311.1h17.62v1.47h6.61V299.35h-6.61v1.47h-34.5L320.32,397l53.59-96.18H339.77v-1.47h-6.24V312.2h6.24v-1.47h16.89l-31.94,58.74V290.91H379.6l2.45-4.4H259.32Zm43,12.94a1.84,1.84,0,1,1-1.84,1.84,1.84,1.84,0,0,1,1.84-1.84Zm31.93,3.95a1.85,1.85,0,0,1-1.67-2.62,1.71,1.71,0,0,1,.91-.9,1.85,1.85,0,0,1,2.39,2.56,1.71,1.71,0,0,1-1.56,1Zm-17.12,69.59V290.25a1.79,1.79,0,0,1,1.47,0v87.21a1.82,1.82,0,0,1,1.1,1.66,1.93,1.93,0,0,1-3.85,0A1.83,1.83,0,0,1,319.58,377.39Z" transform="translate(-249.98 -126.17)"/><circle class="cls-3" cx="54.78" cy="179.52" r="1.84"/><circle class="cls-3" cx="86.71" cy="179.69" r="1.84"/><path class="cls-3" d="M320.22,381a1.89,1.89,0,0,0,1.93-1.84,1.84,1.84,0,0,0-1.1-1.66V290.25a1.79,1.79,0,0,0-1.47,0v87.14a1.83,1.83,0,0,0-1.28,1.73,1.88,1.88,0,0,0,1.92,1.84Z" transform="translate(-249.98 -126.17)"/><polygon points="110.02 223.82 97.02 247.82 212.02 247.82 212.02 223.82 110.02 223.82"/><path class="cls-4" d="M381.55,358.38v10.74h-4.48V358.38h-3.44v-4.33H385v4.33Z" transform="translate(-249.98 -126.17)"/><path class="cls-4" d="M394.66,359.91v3.36h-2.93a1.6,1.6,0,0,0-.84.17.71.71,0,0,0-.25.6.66.66,0,0,0,.26.62,2.28,2.28,0,0,0,1,.15h3v4.31h-3.52a5.48,5.48,0,0,1-3.8-1.19,4.36,4.36,0,0,1-1.31-3.43v-5.9a4.45,4.45,0,0,1,1.24-3.36,4.86,4.86,0,0,1,3.49-1.19H395v4.33h-2.86c-.77,0-1.16.25-1.16.75a.65.65,0,0,0,.28.61,1.92,1.92,0,0,0,1,.17Z" transform="translate(-249.98 -126.17)"/><path class="cls-4" d="M407.7,361.76l4.7.12a9.13,9.13,0,0,1-2.53,5.63,7.42,7.42,0,0,1-5.37,2A7.93,7.93,0,0,1,398.91,356a7.8,7.8,0,0,1,5.7-2.29,7.52,7.52,0,0,1,5.57,2.25,8.74,8.74,0,0,1,2.18,4.34l-4.8.32a3.18,3.18,0,0,0-5.42-1.48,3.5,3.5,0,0,0-.94,2.52,3.42,3.42,0,0,0,.92,2.45,3.35,3.35,0,0,0,4.59.12A3.88,3.88,0,0,0,407.7,361.76Z" transform="translate(-249.98 -126.17)"/><path class="cls-4" d="M425.34,354.05,418.77,370l-6.52-15.93h5.19l1.38,4.7,1.52-4.7Z" transform="translate(-249.98 -126.17)"/><path class="cls-4" d="M430.8,354.05v15.07h-4.48V354.05Z" transform="translate(-249.98 -126.17)"/><path class="cls-4" d="M444,354.05l-4.68,10.74h4.63v4.33H432.57l4.66-10.74h-4.92v-4.33Z" transform="translate(-249.98 -126.17)"/><path class="cls-5" d="M611,152v25l-24,39s-1,12,12,16h61s10-3,9-15l-23-39V152s7-1,5-6H606A6.21,6.21,0,0,0,611,152Z" transform="translate(-249.98 -126.17)"/><circle class="cls-4" cx="364.52" cy="68.33" r="3.5"/><circle class="cls-4" cx="370.53" cy="88.34" r="4.93"/><circle class="cls-4" cx="395.02" cy="88.83" r="6"/><path class="cls-4" d="M638.81,189.62l-1.72,3.54a.79.79,0,0,1-.59.44l-3.87.56,2.81,2.79a.77.77,0,0,1,.22.69l-.66,3.92,3.44-1.84a.75.75,0,0,1,.74,0l3.45,1.84-.66-3.92a.75.75,0,0,1,.22-.69l2.81-2.78-3.87-.57a.77.77,0,0,1-.59-.44Z" transform="translate(-249.98 -126.17)"/></svg>