<svg id="Layer_1" data-name="Layer 1" xmlns="http://www.w3.org/2000/svg" viewBox="0 0 481.96 268.33"><defs><style>.cls-1{fill:#f58125;}.cls-2{stroke:#f58125;stroke-miterlimit:10;stroke-width:5px;}</style></defs><rect x="52.44" width="36.21" height="121.72"/><polygon points="36.2 0 0 0 0 121.72 36.2 121.72 36.2 75.62 46.28 75.62 46.28 43.52 36.2 43.52 36.2 0"/><path d="M412.28,203.85q0,11.15-7.67,11.14-7.94,0-7.93-11.14V126.17H360.47v77.77q0,22.73,10.92,34.86t31.53,12.13q20.68,0,33.13-12.48t12.44-33.36V126.17H412.28Z" transform="translate(-249.98 -126.17)"/><path class="cls-1" d="M470.51,126.17h44.23q39.33,0,39.33,31,0,15.33-13.47,25.5,19.53,8.48,19.53,30.23,0,16.68-11.5,26.58a33.06,33.06,0,0,1-12,6.6q-6.42,1.86-17.3,1.87h-6.87V216.6h6.16q5.43,0,7.67-1.38c1.48-.93,2.23-2.55,2.23-4.86q0-5.9-9.1-5.89h-7V172q10,0,10-6.87,0-6.33-9-6.33h-6.69V247.9h0v76.6q0,8.46,2.72,11.28t10.75,2.8H522V373.9H512.4q-19.8,0-30.86-11.55t-11.05-32.06Z" transform="translate(-249.98 -126.17)"/><path d="M578.48,249.14q-22.22,0-34.47,12.44t-12.26,34.91V373.9H568v-29h10.44V312.81H568V297.65Q568,285,576.43,285q4.37,0,6.06,2.77t1.69,9.89V373.9h36.21V295.25q0-23.55-10.26-34.83T578.48,249.14Z" transform="translate(-249.98 -126.17)"/><path d="M712.42,308.62q13.46-10.15,13.46-25.5,0-30.94-39.32-31H642.33V373.9h36.2V284.81h6.69q9,0,9,6.33,0,6.87-10,6.87v32.46h7q9.1,0,9.1,5.89c0,2.31-.75,3.93-2.23,4.86s-4,1.38-7.67,1.38h-6.15v31.3h6.86q10.89,0,17.3-1.87a32.9,32.9,0,0,0,12-6.6q11.5-9.9,11.51-26.58Q732,317.1,712.42,308.62Z" transform="translate(-249.98 -126.17)"/><line class="cls-2" x1="212.02" y1="141.83" x2="0.02" y2="141.83"/><line class="cls-2" x1="469.02" y1="265.83" x2="240.02" y2="265.83"/></svg>