<svg id="Layer_1" data-name="Layer 1" xmlns="http://www.w3.org/2000/svg" viewBox="0 0 481.96 268.33"><defs><style>.cls-1{fill:#fff;}.cls-2{fill:#f58125;}.cls-3{stroke:#f58125;stroke-miterlimit:10;stroke-width:5px;}</style></defs><path class="cls-1" d="M296.26,169.69v32.1H286.19V247.9H250V126.17h36.21v43.52Zm42.36-43.52V247.9h-36.2V126.17Z" transform="translate(-249.98 -126.17)"/><path class="cls-1" d="M448.49,126.17v78.92q0,20.88-12.44,33.36t-33.13,12.48q-20.6,0-31.53-12.13t-10.92-34.86V126.17h36.21v77.68q0,11.15,7.93,11.14,7.67,0,7.67-11.14V126.17Z" transform="translate(-249.98 -126.17)"/><path class="cls-2" d="M470.51,126.17h44.23q39.33,0,39.33,31,0,15.33-13.47,25.5,19.53,8.48,19.53,30.23,0,16.68-11.5,26.58a33.06,33.06,0,0,1-12,6.6q-6.42,1.86-17.3,1.87h-6.87V216.6h6.16q5.43,0,7.67-1.38c1.48-.93,2.23-2.55,2.23-4.86q0-5.9-9.1-5.89h-7V172q10,0,10-6.87,0-6.33-9-6.33h-6.69V247.9H470.51Z" transform="translate(-249.98 -126.17)"/><path class="cls-2" d="M470.49,219.17h36.2V324.5q0,8.46,2.72,11.28t10.75,2.8H522V373.9H512.4q-19.8,0-30.86-11.55t-11.05-32.06Z" transform="translate(-249.98 -126.17)"/><path class="cls-1" d="M578.39,312.81v32.11H568v29h-36.2V296.49q0-22.47,12.26-34.91t34.47-12.44q21.39,0,31.65,11.28t10.26,34.83V373.9H584.18V297.65q0-7.12-1.69-9.89T576.43,285Q568,285,568,297.65v15.16Z" transform="translate(-249.98 -126.17)"/><path class="cls-1" d="M642.33,252.17h44.23q39.32,0,39.32,31,0,15.33-13.46,25.5Q732,317.09,732,338.85q0,16.68-11.51,26.58a32.9,32.9,0,0,1-12,6.6q-6.42,1.86-17.3,1.87h-6.86V342.6h6.15c3.63,0,6.18-.46,7.67-1.38s2.23-2.55,2.23-4.86q0-5.89-9.1-5.89h-7V298q10,0,10-6.87,0-6.33-9-6.33h-6.69V373.9h-36.2Z" transform="translate(-249.98 -126.17)"/><line class="cls-3" x1="212.02" y1="141.83" x2="0.02" y2="141.83"/><line class="cls-3" x1="469.02" y1="265.83" x2="240.02" y2="265.83"/></svg>