<svg id="Layer_1" data-name="Layer 1" xmlns="http://www.w3.org/2000/svg" viewBox="0 0 351 316.5"><defs><style>.cls-1{fill:#f58125;}.cls-2{fill:#fff;}</style></defs><polygon class="cls-1" points="0 0 5.83 10.5 345.17 10.5 351 0 0 0"/><path class="cls-2" d="M255,259H404.5V473.5l-89-160h48v5h18v-36h-18v4h-94l145,262,146-262h-93v-4h-17v35h17v-4h46l-87,160V259H576l6.67-12H248.33Zm117.52,35.5a5,5,0,1,1-5,5A5,5,0,0,1,372.52,294.5Zm87,10.5a5,5,0,1,1,5-5A5,5,0,0,1,459.5,305ZM413,494.81V257.45a4.79,4.79,0,0,1,4,0V495a5,5,0,0,1,3,4.52,5.26,5.26,0,0,1-10.5,0A5,5,0,0,1,413,494.81Z" transform="translate(-240 -232)"/><circle class="cls-1" cx="132.52" cy="67.52" r="5.02"/><circle class="cls-1" cx="219.5" cy="67.98" r="5.02"/><path class="cls-1" d="M414.75,504.54a5.13,5.13,0,0,0,5.25-5,5,5,0,0,0-3-4.52V257.45a4.79,4.79,0,0,0-4,0V494.81a5,5,0,0,0-3.5,4.71A5.13,5.13,0,0,0,414.75,504.54Z" transform="translate(-240 -232)"/></svg>