<svg id="Layer_1" data-name="Layer 1" xmlns="http://www.w3.org/2000/svg" viewBox="0 0 612 390"><defs><style>.cls-1,.cls-5,.cls-6,.cls-7{fill:none;}.cls-1{stroke:#697791;stroke-linecap:round;stroke-linejoin:round;stroke-dashoffset:3px;stroke-dasharray:3;}.cls-2,.cls-4{fill:#fff;}.cls-2{stroke:#95a3b9;}.cls-3{fill:#f58125;}.cls-6,.cls-7{stroke:#f58125;stroke-width:1.2px;}.cls-6{stroke-linecap:square;}</style></defs><g id="solutions-hero-final"><g id="lines"><path class="cls-1 line" stroke="#95A3B9" stroke-width="1" stroke-linecap="round" stroke-linejoin="round" d="M140,254.5H109a5,5,0,0,0-5,5V279a5,5,0,0,1-5,5H55a5,5,0,0,0-5,5v21" transform="translate(-8 -8)"/><path class="cls-1 line" stroke="#95A3B9" stroke-width="1" stroke-linecap="round" stroke-linejoin="round" d="M319.5,267v24a5,5,0,0,0,5,5H363a5,5,0,0,1,5,5v20" transform="translate(-8 -8)"/><path class="cls-1 line" stroke="#95A3B9" stroke-width="1" stroke-linecap="round" stroke-linejoin="round" d="M141,134H103a5,5,0,0,0-5,5v68a5,5,0,0,1-5,5H62" transform="translate(-8 -8)"/><path class="cls-1 line" stroke="#95A3B9" stroke-width="1" stroke-linecap="round" stroke-linejoin="round" d="M47,92H78a5,5,0,0,0,5-5V43a5,5,0,0,1,5-5h28" transform="translate(-8 -8)"/><path class="cls-1 line" stroke="#95A3B9" stroke-width="1" stroke-linecap="round" stroke-linejoin="round" d="M128,50V68a5,5,0,0,0,5,5h14a5,5,0,0,1,5,5v26" transform="translate(-8 -8)"/><path class="cls-1 line" stroke="#95A3B9" stroke-width="1" stroke-linecap="round" stroke-linejoin="round" d="M170,173v24a3,3,0,0,1-3,3h0a3,3,0,0,0-3,3v24" transform="translate(-8 -8)"/><path class="cls-1 line" stroke="#95A3B9" stroke-width="1" stroke-linecap="round" stroke-linejoin="round" d="M32,110v37a5,5,0,0,0,5,5h8a5,5,0,0,1,5,5v40.5" transform="translate(-8 -8)"/><path class="cls-1 line" stroke="#95A3B9" stroke-width="1" stroke-linecap="round" stroke-linejoin="round" d="M263,235H225.79a5,5,0,0,0-5,5v9a5,5,0,0,1-5,5H191" transform="translate(-8 -8)"/><path class="cls-1 line" stroke="#95A3B9" stroke-width="1" stroke-linecap="round" stroke-linejoin="round" d="M376,212h37.79a5,5,0,0,1,5,5v20a5,5,0,0,0,5,5H449" transform="translate(-8 -8)"/><path class="cls-1 line" stroke="#95A3B9" stroke-width="1" stroke-linecap="round" stroke-linejoin="round" d="M253,32h26a5,5,0,0,1,5,5V57a5,5,0,0,0,5,5h25.5" transform="translate(-8 -8)"/><path class="cls-1 line" stroke="#95A3B9" stroke-width="1" stroke-linecap="round" stroke-linejoin="round" d="M227,30H193a5,5,0,0,0-5,5v68.5" transform="translate(-8 -8)"/><path class="cls-1 line" stroke="#95A3B9" stroke-width="1" stroke-linecap="round" stroke-linejoin="round" d="M194,133.5h31a5,5,0,0,1,5,5v26a5,5,0,0,0,5,5h24" transform="translate(-8 -8)"/><path class="cls-1 line" stroke="#95A3B9" stroke-width="1" stroke-linecap="round" stroke-linejoin="round" d="M338,87.5V105a5,5,0,0,1-5,5h-8a5,5,0,0,0-5,5v16" transform="translate(-8 -8)"/><path class="cls-1 line" stroke="#95A3B9" stroke-width="1" stroke-linecap="round" stroke-linejoin="round" d="M485,344H445.38a5,5,0,0,0-5,5v2a5,5,0,0,1-5,5H389" transform="translate(-8 -8)"/><path class="cls-1 line" stroke="#95A3B9" stroke-width="1" stroke-linecap="round" stroke-linejoin="round" d="M584,332H558.32a5,5,0,0,0-5,5v2a5,5,0,0,1-5,5H518" transform="translate(-8 -8)"/><path class="cls-1 line" stroke="#95A3B9" stroke-width="1" stroke-linecap="round" stroke-linejoin="round" d="M602,261v25.68a5,5,0,0,1-5,5h-2a5,5,0,0,0-5,5V327" transform="translate(-8 -8)"/><path class="cls-1 line" stroke="#95A3B9" stroke-width="1" stroke-linecap="round" stroke-linejoin="round" d="M264,326h27a5,5,0,0,1,5,5v20a5,5,0,0,0,5,5h34" transform="translate(-8 -8)"/><path class="cls-1 line" stroke="#95A3B9" stroke-width="1" stroke-linecap="round" stroke-linejoin="round" d="M227,337H199a5,5,0,0,0-5,5v3a5,5,0,0,1-5,5H156" transform="translate(-8 -8)"/><path class="cls-1 line" stroke="#95A3B9" stroke-width="1" stroke-linecap="round" stroke-linejoin="round" d="M71,332H99a5,5,0,0,1,5,5v8a5,5,0,0,0,5,5h33" transform="translate(-8 -8)"/><path class="cls-1 line" stroke="#95A3B9" stroke-width="1" stroke-linecap="round" stroke-linejoin="round" d="M164,279v30a5,5,0,0,0,5,5h60.5" transform="translate(-8 -8)"/><path class="cls-1 line" stroke="#95A3B9" stroke-width="1" stroke-linecap="round" stroke-linejoin="round" d="M470,260v28a5,5,0,0,0,5,5h20a5,5,0,0,1,5,5v33" transform="translate(-8 -8)"/><path class="cls-1 line" stroke="#95A3B9" stroke-width="1" stroke-linecap="round" stroke-linejoin="round" d="M543,152H520.11a5,5,0,0,0-5,5v2a5,5,0,0,1-5,5H483" transform="translate(-8 -8)"/><path class="cls-1 line" stroke="#95A3B9" stroke-width="1" stroke-linecap="round" stroke-linejoin="round" d="M590,79v22.89a5,5,0,0,1-5,5H565a5,5,0,0,0-5,5V139" transform="translate(-8 -8)"/><path class="cls-1 line" stroke="#95A3B9" stroke-width="1" stroke-linecap="round" stroke-linejoin="round" d="M560,169v22.89a5,5,0,0,0,5,5h26a5,5,0,0,1,5,5V229" transform="translate(-8 -8)"/><path class="cls-1 line" stroke="#95A3B9" stroke-width="1" stroke-linecap="round" stroke-linejoin="round" d="M470,98v30a3,3,0,0,0,3,3h0a3,3,0,0,1,3,3v18" transform="translate(-8 -8)"/><path class="cls-1 line" stroke="#95A3B9" stroke-width="1" stroke-linecap="round" stroke-linejoin="round" d="M576,62H546a3,3,0,0,0-3,3h0a3,3,0,0,1-3,3H505" transform="translate(-8 -8)"/><path class="cls-1 line" stroke="#95A3B9" stroke-width="1" stroke-linecap="round" stroke-linejoin="round" d="M449,68H421a5,5,0,0,0-5,5v98a5,5,0,0,1-5,5H378" transform="translate(-8 -8)"/></g><g id="boxes"><g id="Group_302" data-name="Group 302"><rect id="Rectangle_400_2" data-name="Rectangle 400_2" class="cls-2" x="120.5" y="84.5" width="83" height="83" rx="24.87"/></g><g id="Group_308" data-name="Group 308"><rect id="Rectangle_400_3" data-name="Rectangle 400_3" class="cls-2" x="420.5" y="18.5" width="83" height="83" rx="26.67"/></g><g id="Group_301" data-name="Group 301"><rect id="Rectangle_400_4" data-name="Rectangle 400_4" class="cls-2" x="126.5" y="216.5" width="59" height="59" rx="19.11"/></g><g id="Group_309" data-name="Group 309"><rect id="Rectangle_400_5" data-name="Rectangle 400_5" class="cls-2" x="12.5" y="294.5" width="59" height="59" rx="19.83"/></g><g id="Group_316" data-name="Group 316"><rect id="Rectangle_400_6" data-name="Rectangle 400_6" class="cls-2" x="204.5" y="0.5" width="47" height="47" rx="15.15"/></g><g id="Group_310" data-name="Group 310"><rect id="Rectangle_400_7" data-name="Rectangle 400_7" class="cls-2" x="299.5" y="24.5" width="59" height="59" rx="20.77"/></g><g id="Group_304" data-name="Group 304"><rect id="Rectangle_400_8" data-name="Rectangle 400_8" class="cls-2" x="318.5" y="306.5" width="83" height="83" rx="27.51"/></g><g id="Group_303" data-name="Group 303"><rect id="Rectangle_400_9" data-name="Rectangle 400_9" class="cls-2" x="462.5" y="306.5" width="59" height="59" rx="16.83"/></g><g id="Group_313" data-name="Group 313"><rect id="Rectangle_400_10" data-name="Rectangle 400_10" class="cls-2" x="528.5" y="120.5" width="47" height="47" rx="13.59"/></g><g id="Group_317" data-name="Group 317"><rect id="Rectangle_400_11" data-name="Rectangle 400_11" class="cls-2" x="18.5" y="180.5" width="47" height="47" rx="15.03"/></g><g id="Group_325" data-name="Group 325"><rect id="Rectangle_400_12" data-name="Rectangle 400_12" class="cls-2" x="0.5" y="60.5" width="47" height="47" rx="16.59"/></g><g id="Group_314" data-name="Group 314"><rect id="Rectangle_400_13" data-name="Rectangle 400_13" class="cls-2" x="216.5" y="294.5" width="47" height="47" rx="15.87"/></g><g id="Group_307" data-name="Group 307"><rect id="Rectangle_400_14" data-name="Rectangle 400_14" class="cls-2" x="564.5" y="211.5" width="47" height="47" rx="15.53"/></g><g id="Group_315" data-name="Group 315"><rect id="Rectangle_400_15" data-name="Rectangle 400_15" class="cls-2" x="432.5" y="204.5" width="59" height="59" rx="16.71"/></g><g id="Group_324" data-name="Group 324"><rect id="Rectangle_400_16" data-name="Rectangle 400_16" class="cls-2" x="120.5" y="324.5" width="35" height="35" rx="11.91"/></g><g id="Group_323" data-name="Group 323"><rect id="Rectangle_400_17" data-name="Rectangle 400_17" class="cls-2" x="102.5" y="12.5" width="35" height="35" rx="12.15"/></g><g id="Group_329" data-name="Group 329"><rect id="Rectangle_400_18" data-name="Rectangle 400_18" class="cls-2" x="564.5" y="307.5" width="35" height="35" rx="12.65"/></g><g id="Group_330" data-name="Group 330"><rect id="Rectangle_400_19" data-name="Rectangle 400_19" class="cls-2" x="450.5" y="138.5" width="35" height="35" rx="12.63"/></g><g id="Group_328" data-name="Group 328"><rect id="Rectangle_400_20" data-name="Rectangle 400_20" class="cls-2" x="558.5" y="30.5" width="47" height="47" rx="17.79"/></g></g></g><rect class="cls-3" x="239.66" y="117.14" width="135" height="135" rx="47.02"/><polygon class="cls-4" points="263.31 147.31 264.77 149.94 349.92 149.94 351.39 147.31 263.31 147.31"/><path class="cls-4" d="M275.07,162.08h37.52v53.83l-22.34-40.15H302.3V177h4.52v-9H302.3v1H278.71l36.39,65.75L351.73,169H328.4v-1h-4.27v8.78h4.27v-1h11.54l-21.83,40.15V162.08h37.51l1.68-3H273.4ZM304.56,171a1.26,1.26,0,1,1-1.26,1.26A1.26,1.26,0,0,1,304.56,171Zm21.83,2.64a1.26,1.26,0,1,1,1.26-1.26A1.26,1.26,0,0,1,326.39,173.63Zm-11.67,47.63V161.69a1.21,1.21,0,0,1,1,0V221.3a1.27,1.27,0,0,1,.76,1.14,1.32,1.32,0,0,1-2.64,0A1.25,1.25,0,0,1,314.72,221.26Z" transform="translate(-8 -8)"/><circle class="cls-5" cx="296.56" cy="164.25" r="1.26"/><circle class="cls-5" cx="318.39" cy="164.37" r="1.26"/><path class="cls-5" d="M315.16,223.7a1.29,1.29,0,0,0,1.32-1.26,1.27,1.27,0,0,0-.76-1.14V161.69a1.21,1.21,0,0,0-1,0v59.57a1.25,1.25,0,0,0-.88,1.18A1.29,1.29,0,0,0,315.16,223.7Z" transform="translate(-8 -8)"/><path class="cls-3" d="M500,330.84a13.21,13.21,0,1,1-13.2,13.21A13.2,13.2,0,0,1,500,330.84Zm0,29.46a16.25,16.25,0,1,0-16.25-16.25A16.26,16.26,0,0,0,500,360.3Zm7.17-19.24a1.52,1.52,0,1,0-2.15-2.15l-7,7-3-3a1.52,1.52,0,1,0-2.15,2.16l4.06,4.06a1.51,1.51,0,0,0,2.15,0Z" transform="translate(-8 -8)"/><path class="cls-3" d="M463.24,250.45a5.95,5.95,0,0,1-2-11.56c0-.11,0-.22,0-.33a6.61,6.61,0,0,1,12.33-3.29,3.89,3.89,0,0,1,2.2-.67,4,4,0,0,1,4,4,4,4,0,0,1-.26,1.43,5.28,5.28,0,0,1-1.06,10.46Zm3.26-6.9,3.3,3.3a1,1,0,0,0,1.4,0l3.3-3.3a1,1,0,0,0,0-1.4,1,1,0,0,0-1.4,0l-1.61,1.61v-5.53a1,1,0,0,0-2,0v5.53l-1.61-1.61a1,1,0,0,0-1.4,1.4Z" transform="translate(-8 -8)"/><path class="cls-3" d="M143.42,349.5a3.87,3.87,0,1,0-3.86-3.87A3.87,3.87,0,0,0,143.42,349.5ZM142,351a5.38,5.38,0,0,0-5.38,5.39.89.89,0,0,0,.89.89h11.9a8,8,0,0,1-3.11-6.05,5.19,5.19,0,0,0-1.53-.22Zm9.33-2.37L147.75,350a.74.74,0,0,0-.46.68,6.83,6.83,0,0,0,4.07,6.47.77.77,0,0,0,.56,0,6.83,6.83,0,0,0,4.07-6.47.74.74,0,0,0-.46-.68l-3.62-1.45a.72.72,0,0,0-.54,0Zm3.15,2.61a5.3,5.3,0,0,1-2.88,4.52V350Z" transform="translate(-8 -8)"/><path class="cls-3" d="M586.92,51.55a1,1,0,1,0-1.92,0v1.61a2.57,2.57,0,0,0-2.57,2.56h-1.6a1,1,0,0,0,0,1.92h1.6v2.25h-1.6a1,1,0,0,0,0,1.92h1.6v2.25h-1.6a1,1,0,0,0,0,1.92h1.6A2.58,2.58,0,0,0,585,68.55v1.6a1,1,0,1,0,1.92,0v-1.6h2.25v1.6a1,1,0,0,0,1.92,0v-1.6h2.24v1.6a1,1,0,0,0,1.93,0v-1.6A2.57,2.57,0,0,0,597.82,66h1.61a1,1,0,1,0,0-1.92h-1.61V61.81h1.61a1,1,0,1,0,0-1.92h-1.61V57.64h1.61a1,1,0,1,0,0-1.92h-1.61a2.56,2.56,0,0,0-2.56-2.56V51.55a1,1,0,0,0-1.93,0v1.61h-2.24V51.55a1,1,0,0,0-1.92,0v1.61h-2.25Zm-.64,4.17H594A1.28,1.28,0,0,1,595.26,57v7.7A1.28,1.28,0,0,1,594,66h-7.7A1.28,1.28,0,0,1,585,64.7V57A1.28,1.28,0,0,1,586.28,55.72ZM594,57h-7.7v7.7H594Z" transform="translate(-8 -8)"/><path class="cls-3" d="M46.52,205.13v2.08h7v-2.08a3.48,3.48,0,1,0-7,0Zm-2.79,2.08v-2.08a6.27,6.27,0,0,1,12.54,0v2.08H57A2.79,2.79,0,0,1,59.75,210v8.36A2.79,2.79,0,0,1,57,221.14H43a2.79,2.79,0,0,1-2.79-2.78V210A2.79,2.79,0,0,1,43,207.21Z" transform="translate(-8 -8)"/><path class="cls-3" d="M251.11,324.06a1.94,1.94,0,0,1-1.94,1.94h-3.65v-3.87h3.65A1.94,1.94,0,0,1,251.11,324.06Zm9.25,1.94a12.91,12.91,0,1,1-12.91-12.91A12.91,12.91,0,0,1,260.36,326Zm-6.67-1.94a4.51,4.51,0,0,0-4.52-4.51h-6.24v12.9h2.59v-3.87h3.65a4.52,4.52,0,0,0,4.52-4.52Z" transform="translate(-8 -8)"/><path class="cls-3" d="M59.6,322.28a13.59,13.59,0,0,0-21.38,16.39l-1.93,7,7.2-1.89a13.62,13.62,0,0,0,6.5,1.65h0a13.49,13.49,0,0,0,9.61-23.19ZM50,343.18a11.24,11.24,0,0,1-5.75-1.57l-.41-.25-4.27,1.12,1.14-4.16-.27-.43A11.29,11.29,0,0,1,50,320.59a11.17,11.17,0,0,1,8,3.31,11.21,11.21,0,0,1-8,19.28Zm6.2-8.46c-.34-.17-2-1-2.32-1.1s-.54-.17-.77.17-.87,1.1-1.07,1.34-.4.25-.74.08a9.23,9.23,0,0,1-4.62-4c-.35-.6.35-.55,1-1.85a.64.64,0,0,0,0-.59c-.09-.18-.77-1.85-1-2.53s-.56-.56-.76-.58h-.65a1.28,1.28,0,0,0-.91.42,3.86,3.86,0,0,0-1.19,2.84,6.61,6.61,0,0,0,1.39,3.51,15.15,15.15,0,0,0,5.8,5.13c2.15.93,3,1,4.07.85a3.46,3.46,0,0,0,2.29-1.62,2.72,2.72,0,0,0,.2-1.61C56.75,335,56.52,334.89,56.19,334.72Z" transform="translate(-8 -8)"/><path class="cls-3" d="M353.48,61.07l-3.11-5.39a1.11,1.11,0,0,0,.11-.45.94.94,0,0,0-.91-.93l-3.45-6a.82.82,0,0,0,.07-.3.95.95,0,0,0-1.68-.6h-6.62a.92.92,0,0,0-.72-.35.88.88,0,0,0-.71.35h-6.59a.95.95,0,0,0-1.68.6.94.94,0,0,0,.06.3l-3.47,6a.94.94,0,0,0-.57.85s0,.07,0,.1l-3.31,5.72a.94.94,0,0,0-.78.93,1,1,0,0,0,.74.94l3.43,5.92a.94.94,0,0,0-.05.3.92.92,0,0,0,.75.91l3.21,5.58a1.14,1.14,0,0,0-.06.33,1,1,0,0,0,.94,1,.94.94,0,0,0,.72-.34h6.64a.93.93,0,0,0,.71.34,1,1,0,0,0,.72-.34h6.65a.92.92,0,0,0,.68.3.94.94,0,0,0,.95-.94.59.59,0,0,0-.05-.27l3.21-5.61a.91.91,0,0,0,.75-.91.79.79,0,0,0-.05-.3l3.41-5.92a1,1,0,0,0,.77-.94A.93.93,0,0,0,353.48,61.07Zm-24.66,13-2.71-4.71h2.71Zm0-5.21h-2.71a1.19,1.19,0,0,0-.08-.2l2.79-3Zm0-3.88-3.13,3.31a1.86,1.86,0,0,0-.25-.1l-3.46-6a.53.53,0,0,0,0-.25.68.68,0,0,0,0-.21l3.23-5.59a1.11,1.11,0,0,0,.48-.17l3.11,3.23V65Zm0-6.35L326,55.71a.93.93,0,0,0,.13-.48s0,0,0-.07l2.73-1Zm0-5-2.71,1,2.71-4.69Zm20.28,2.43,0,.08L347,66.54l-4-4.17,6.08-6.31ZM337.41,68.16l.71.73h-1.41Zm0-.7-5.18-5.31,5-5.24,5.15,5.44Zm.33.36,4.93-5.1,4.19,4.42-.37,1.75h-7.7Zm7.06-19a1,1,0,0,0,.21.08l3.6,6.26v0a.93.93,0,0,0,.13.48L342.66,62l-5.15-5.44Zm-.57-.14-7,7.47-3.55-3.74,10.33-3.73Zm-7.67,0a.87.87,0,0,0,.63.27.85.85,0,0,0,.63-.27h4.66l-9.21,3.33-3.16-3.33Zm-7.22.35.07-.13.16,0,3.18,3.34-3.41,1.24Zm0,4.93,3.78-1.37,3.71,3.93-4.94,5.22-2.55-2.61Zm0,5.75,2.26,2.35-2.26,2.38V59.75Zm0,5.46,2.61-2.76,5.14,5.34L336,68.89h-6.69V65.21Zm.43,10.07a.88.88,0,0,0-.36-.22l-.07-.1V69.39h6.21l-5.69,5.89Zm8.07,0a.92.92,0,0,0-1.3,0h-6l5.69-5.89h2.38l5.69,5.89Zm7.45-.74L345,75l-.22.08-5.54-5.7h7.11l-1.09,5.15Zm.8-1.38.8-3.77h1.37Zm2.17-4.27H347l.28-1.32,1.07,1.13a.54.54,0,0,0-.08.19Zm4.11-6.67-3.45,6-.25.12L347.37,67l2.15-10.18,2.84,4.93a1.72,1.72,0,0,0-.05.26A1,1,0,0,0,352.35,62.22Z" transform="translate(-8 -8)"/><path class="cls-3" d="M478.55,153.2a3,3,0,0,0-3.76,2.09l-.24.85a3.75,3.75,0,0,1-.83,1.48L471.55,160a1,1,0,0,0,.07,1.44,1,1,0,0,0,1.43-.07l2.17-2.39a5.65,5.65,0,0,0,1.28-2.29l.24-.84a1,1,0,0,1,1.26-.7,1,1,0,0,1,.69,1.26l-.24.84a7.71,7.71,0,0,1-1.12,2.35,1,1,0,0,0,.83,1.61h5.65a.68.68,0,0,1,.24,1.31,1,1,0,0,0-.41,1.62.66.66,0,0,1,.17.45.69.69,0,0,1-.55.67,1,1,0,0,0-.76.64,1,1,0,0,0,.15,1,.69.69,0,0,1,.15.42.67.67,0,0,1-.44.63,1,1,0,0,0-.61,1.22.57.57,0,0,1,0,.18.68.68,0,0,1-.68.68H477a2.77,2.77,0,0,1-1.5-.45l-2.61-1.74a1,1,0,0,0-1.13,1.69l2.62,1.74a4.72,4.72,0,0,0,2.62.8h4.13a2.72,2.72,0,0,0,2.71-2.63,2.68,2.68,0,0,0,1-2.11,2.44,2.44,0,0,0-.06-.55,2.72,2.72,0,0,0,1.07-2.16,2.56,2.56,0,0,0-.12-.79,2.72,2.72,0,0,0-1.91-4.64H479.9a9.22,9.22,0,0,0,.5-1.36l.24-.85a3,3,0,0,0-2.09-3.76Zm-12.35,6.65a1.35,1.35,0,0,0-1.35,1.36v9.48A1.34,1.34,0,0,0,466.2,172h2.71a1.35,1.35,0,0,0,1.36-1.35v-9.48a1.36,1.36,0,0,0-1.36-1.36Z" transform="translate(-8 -8)"/><path class="cls-3" d="M489.09,56.86c0,.42,0,.85,0,1.28,0,13-9.91,28-28,28A27.78,27.78,0,0,1,446,81.74a18.52,18.52,0,0,0,2.37.13,19.78,19.78,0,0,0,12.24-4.21,9.87,9.87,0,0,1-9.22-6.83,12.62,12.62,0,0,0,1.86.15,10.19,10.19,0,0,0,2.6-.34,9.84,9.84,0,0,1-7.9-9.67v-.12a9.9,9.9,0,0,0,4.45,1.25,9.86,9.86,0,0,1-3.05-13.17,28,28,0,0,0,20.31,10.3,11.23,11.23,0,0,1-.24-2.25,9.86,9.86,0,0,1,17.05-6.74,19.38,19.38,0,0,0,6.25-2.38,9.78,9.78,0,0,1-4.33,5.43A20,20,0,0,0,494,51.76a21.17,21.17,0,0,1-4.94,5.1Z" transform="translate(-8 -8)"/><path class="cls-3" d="M233.74,19.09l-2.28.85a.47.47,0,0,0,0,.88l2.28.85L234.6,24a.45.45,0,0,0,.43.3.47.47,0,0,0,.44-.3l.85-2.28,2.28-.85a.47.47,0,0,0,0-.88l-2.28-.85-.85-2.28a.47.47,0,0,0-.44-.3.45.45,0,0,0-.43.3ZM222.33,40.44a2.9,2.9,0,0,0,0,4.11l2.09,2.09a2.9,2.9,0,0,0,4.11,0l23.08-23.08a2.92,2.92,0,0,0,0-4.11l-2.09-2.09a2.92,2.92,0,0,0-4.11,0Zm26.54-18.93-6.36,6.35-1.41-1.41,6.36-6.35ZM220,23.6a.69.69,0,0,0-.45.65.71.71,0,0,0,.45.66l3.42,1.28,1.28,3.42a.73.73,0,0,0,.66.46.7.7,0,0,0,.65-.46l1.28-3.42,3.42-1.28a.7.7,0,0,0,.46-.66.69.69,0,0,0-.46-.65l-3.42-1.28L226,18.9a.69.69,0,0,0-.65-.46.71.71,0,0,0-.66.46l-1.28,3.42ZM241.3,39.1a.69.69,0,0,0,0,1.3l3.42,1.29L246,45.11a.69.69,0,0,0,.65.45.72.72,0,0,0,.66-.45l1.28-3.42L252,40.4a.69.69,0,0,0,0-1.3l-3.42-1.29-1.28-3.42a.72.72,0,0,0-.66-.45.69.69,0,0,0-.65.45l-1.28,3.42Z" transform="translate(-8 -8)"/><path class="cls-3" d="M157.31,266c0,.16-.18.29-.42.29s-.45-.1-.45-.29.18-.29.42-.29S157.31,265.83,157.31,266Zm-2.53-.37c-.05.17.11.35.35.4a.39.39,0,0,0,.51-.16c.05-.16-.11-.35-.35-.43a.44.44,0,0,0-.51.19Zm3.6-.14c-.23.06-.4.22-.37.4s.23.27.48.21.4-.21.37-.37S158.62,265.49,158.38,265.51Zm5.36-31.2a19.52,19.52,0,0,0-19.93,19.87,20.41,20.41,0,0,0,13.8,19.48c1,.18,1.41-.46,1.41-1s0-3.29,0-5c0,0-5.7,1.22-6.9-2.42,0,0-.92-2.37-2.26-3,0,0-1.86-1.27.13-1.25a4.28,4.28,0,0,1,3.14,2.1c1.79,3.14,4.78,2.24,5.94,1.7a4.58,4.58,0,0,1,1.3-2.74c-4.55-.51-9.14-1.17-9.14-9a6.16,6.16,0,0,1,1.92-4.79,7.74,7.74,0,0,1,.21-5.53c1.7-.53,5.62,2.19,5.62,2.19a19.3,19.3,0,0,1,10.23,0s3.92-2.73,5.62-2.19a7.73,7.73,0,0,1,.21,5.53,6.33,6.33,0,0,1,2.1,4.79c0,7.86-4.8,8.49-9.35,9a4.8,4.8,0,0,1,1.39,3.78c0,2.74,0,6.14,0,6.81,0,.52.38,1.17,1.41,1a20.22,20.22,0,0,0,13.66-19.46C184.19,242.88,175,234.31,163.74,234.31Zm-12,28.09c-.11.08-.08.26.06.42s.31.19.42.08.08-.27-.06-.42S151.83,262.29,151.72,262.4Zm-.88-.66c-.06.1,0,.23.19.31a.25.25,0,0,0,.35-.05c.06-.11,0-.24-.19-.32S150.9,261.65,150.84,261.74Zm2.64,2.89c-.13.11-.08.35.11.51s.42.21.52.08.06-.35-.1-.5S153.59,264.5,153.48,264.63Zm-.93-1.19c-.13.08-.13.29,0,.48s.35.27.46.19a.38.38,0,0,0,0-.51c-.12-.19-.33-.27-.46-.16Z" transform="translate(-8 -8)"/><path class="cls-3" d="M367.05,345.13A10.87,10.87,0,1,0,377.91,356,10.86,10.86,0,0,0,367.05,345.13Zm0,17.93a7.06,7.06,0,1,1,7.06-7.06,7.07,7.07,0,0,1-7.06,7.06Zm13.84-18.37a2.54,2.54,0,1,1-2.53-2.53A2.52,2.52,0,0,1,380.89,344.69Zm7.2,2.57c-.16-3.39-.94-6.4-3.43-8.88s-5.48-3.25-8.88-3.42-14-.2-17.48,0-6.39.94-8.88,3.41-3.25,5.49-3.42,8.88-.2,14,0,17.49.93,6.4,3.42,8.88,5.48,3.25,8.88,3.42,14,.2,17.48,0,6.41-.94,8.88-3.42,3.26-5.49,3.43-8.88.2-14,0-17.48Zm-4.52,21.23a7.16,7.16,0,0,1-4,4c-2.79,1.11-9.41.85-12.49.85s-9.72.25-12.5-.85a7.12,7.12,0,0,1-4-4c-1.11-2.79-.86-9.41-.86-12.49s-.24-9.71.86-12.49a7.12,7.12,0,0,1,4-4c2.79-1.11,9.41-.85,12.5-.85s9.71-.25,12.49.85a7.16,7.16,0,0,1,4,4c1.1,2.79.85,9.41.85,12.49S384.67,365.71,383.57,368.49Z" transform="translate(-8 -8)"/><path class="cls-3" d="M193.5,133.86a23.67,23.67,0,1,0-27.37,23.38V140.7h-6v-6.84h6v-5.22c0-5.93,3.53-9.21,8.94-9.21a35.85,35.85,0,0,1,5.3.47v5.82h-3c-2.94,0-3.86,1.82-3.86,3.69v4.45h6.56L179,140.7h-5.51v16.54A23.68,23.68,0,0,0,193.5,133.86Z" transform="translate(-8 -8)"/><g id="icon_layers" data-name="icon/layers"><path id="Vector_6" data-name="Vector 6" class="cls-6" d="M32,79l13.48,6.74L32,92.5,18.52,85.77Z" transform="translate(-8 -8)"/><path id="Vector_7" data-name="Vector 7" class="cls-6" d="M45.48,92.5,32,99.23,18.52,92.5" transform="translate(-8 -8)"/><path id="Vector_8" data-name="Vector 8" class="cls-6" d="M45.48,99.23,32,106,18.52,99.23" transform="translate(-8 -8)"/></g><g id="A-C_cog" data-name="A-C / cog"><circle id="Ellipse_2" data-name="Ellipse 2" class="cls-7" cx="120" cy="30" r="4.42"/><path id="Vector_14" data-name="Vector 14" class="cls-7" d="M130,30.17l-.44-1.08a1.63,1.63,0,0,0-3,0l-.44,1.08a1.66,1.66,0,0,1-2.21.92l-1.07-.46A1.65,1.65,0,0,0,121,31a1.61,1.61,0,0,0-.34,1.79l.46,1.07a1.7,1.7,0,0,1-.92,2.22l-1.08.43a1.62,1.62,0,0,0,0,3l1.08.44a1.62,1.62,0,0,1,.92.91,1.68,1.68,0,0,1,0,1.3l-.46,1.07A1.61,1.61,0,0,0,121,45a1.63,1.63,0,0,0,1.8.35l1.07-.46a1.66,1.66,0,0,1,2.21.92l.44,1.08a1.63,1.63,0,0,0,3,0l.44-1.08a1.66,1.66,0,0,1,2.21-.92l1.07.46A1.63,1.63,0,0,0,135,45a1.61,1.61,0,0,0,.34-1.79l-.46-1.07a1.68,1.68,0,0,1,0-1.3,1.62,1.62,0,0,1,.92-.91l1.08-.44a1.62,1.62,0,0,0,0-3l-1.08-.43a1.7,1.7,0,0,1-.92-2.22l.46-1.07A1.61,1.61,0,0,0,135,31a1.65,1.65,0,0,0-1.8-.35l-1.07.46a1.66,1.66,0,0,1-2.21-.92Z" transform="translate(-8 -8)"/></g><g id="icon_mobile-device" data-name="icon/mobile-device"><g id="H-N_mobile-device" data-name="H-N / mobile-device"><rect id="Rectangle_57" data-name="Rectangle 57" class="cls-7" x="543.94" y="130.62" width="16.11" height="25.76" rx="1.44"/><circle id="Ellipse_11" data-name="Ellipse 11" class="cls-7" cx="552" cy="151.55" r="1.61"/></g></g><g id="A-C_cog-2" data-name="A-C / cog"><circle id="Ellipse_2-2" data-name="Ellipse 2" class="cls-7" cx="582" cy="324.46" r="4.42"/><path id="Vector_14-2" data-name="Vector 14" class="cls-7" d="M592,324.63l-.44-1.08a1.62,1.62,0,0,0-3,0l-.44,1.08a1.62,1.62,0,0,1-.91.92,1.63,1.63,0,0,1-1.3,0l-1.07-.45a1.63,1.63,0,0,0-2.14,2.14l.46,1.06a1.7,1.7,0,0,1,0,1.31,1.68,1.68,0,0,1-.92.91l-1.08.43a1.63,1.63,0,0,0,0,3l1.08.43a1.68,1.68,0,0,1,.92.91,1.7,1.7,0,0,1,0,1.31l-.46,1.06a1.63,1.63,0,0,0,2.14,2.14l1.07-.45a1.67,1.67,0,0,1,1.3,0,1.62,1.62,0,0,1,.91.92l.44,1.08a1.62,1.62,0,0,0,3,0l.44-1.08a1.62,1.62,0,0,1,.91-.92,1.67,1.67,0,0,1,1.3,0l1.07.45a1.63,1.63,0,0,0,2.14-2.14l-.46-1.06a1.7,1.7,0,0,1,0-1.31,1.68,1.68,0,0,1,.92-.91l1.08-.43a1.63,1.63,0,0,0,0-3l-1.08-.43a1.68,1.68,0,0,1-.92-.91,1.7,1.7,0,0,1,0-1.31l.46-1.06a1.63,1.63,0,0,0-2.14-2.14l-1.07.45a1.63,1.63,0,0,1-1.3,0A1.62,1.62,0,0,1,592,324.63Z" transform="translate(-8 -8)"/></g><path class="cls-3" d="M605.44,235.12H589.6a1.33,1.33,0,0,0-1.32,1.34v15.81a1.32,1.32,0,0,0,1.32,1.33h15.84a1.32,1.32,0,0,0,1.32-1.33V236.46A1.33,1.33,0,0,0,605.44,235.12ZM593.86,251h-2.73v-8.82h2.74V251Zm-1.36-10a1.59,1.59,0,1,1,1.58-1.59A1.59,1.59,0,0,1,592.5,240.94Zm11.63,10h-2.74v-4.29c0-1,0-2.34-1.42-2.34s-1.65,1.12-1.65,2.27V251h-2.74v-8.82h2.63v1.21h0a2.89,2.89,0,0,1,2.59-1.42c2.78,0,3.29,1.82,3.29,4.2Z" transform="translate(-8 -8)"/>
<defs>
  <style>
    .line {
      stroke: #697791;
    stroke-dasharray: 3;
    stroke-dashoffset: 3;
    -webkit-animation: dash 4s linear infinite;
    animation: dash 4s linear infinite;
    }

    @keyframes dash {
      to {
        stroke-dashoffset: -50;
      }
    }
  </style>
</defs>
</svg>