<svg id="Layer_1" data-name="Layer 1" xmlns="http://www.w3.org/2000/svg" viewBox="0 0 536 536"><defs><style>.cls-1{fill:#fff;}.cls-2{fill:#f58125;}.cls-3{fill:#17234d;}</style></defs><rect class="cls-1" width="536" height="536" rx="49.64"/><polygon class="cls-2" points="93 119 98.83 129.5 438.17 129.5 444 119 93 119"/><polygon class="cls-3" points="108 146 257.5 146 257.5 360.5 168.5 200.5 216.5 200.5 216.5 205.5 234.5 205.5 234.5 169.5 216.5 169.5 216.5 173.5 122.5 173.5 267.5 435.5 413.5 173.5 320.5 173.5 320.5 169.5 303.5 169.5 303.5 204.5 320.5 204.5 320.5 200.5 366.5 200.5 279.5 360.5 279.5 146 429 146 435.67 134 101.33 134 108 146"/><circle class="cls-1" cx="225.52" cy="186.52" r="5.02"/><circle class="cls-1" cx="312.5" cy="186.98" r="5.02"/><path class="cls-1" d="M626,461V223.45a4.79,4.79,0,0,0-4,0V460.81a5,5,0,0,0-3.5,4.71,5.26,5.26,0,0,0,10.5,0A5,5,0,0,0,626,461Z" transform="translate(-356 -79)"/></svg>