<svg id="Layer_1" data-name="Layer 1" xmlns="http://www.w3.org/2000/svg" viewBox="0 0 351 316.5"><defs><style>.cls-1{fill:#f58125;}.cls-2{fill:#fff;}.cls-3{fill:none;}</style></defs><polygon class="cls-1" points="0 0 5.83 10.5 345.17 10.5 351 0 0 0"/><path class="cls-2" d="M15,27H164.5V241.5l-89-160h48v5h18v-36h-18v4h-94l145,262,146-262h-93v-4h-17v35h17v-4h46l-87,160V27H336l6.67-12H8.33ZM132.52,62.5a5,5,0,1,1-5,5A5,5,0,0,1,132.52,62.5Zm87,10.5a5,5,0,1,1,5-5,5,5,0,0,1-5,5h0ZM173,262.81V25.45a4.82,4.82,0,0,1,4,0V263a5,5,0,0,1,3,4.52,5.26,5.26,0,0,1-10.5,0A5,5,0,0,1,173,262.81Z"/><circle class="cls-3" cx="132.52" cy="67.52" r="5.02"/><ellipse class="cls-3" cx="219.5" cy="67.05" rx="5.02" ry="4.09"/><path class="cls-3" d="M174.75,272.54a5.13,5.13,0,0,0,5.25-5,5,5,0,0,0-3-4.52V25.45a4.82,4.82,0,0,0-4,0V262.81a5,5,0,0,0-3.5,4.71,5.13,5.13,0,0,0,5.24,5Z"/></svg>