<svg id="Layer_1" data-name="Layer 1" xmlns="http://www.w3.org/2000/svg" viewBox="0 0 638.33 510.09"><defs><style>.cls-1{fill:none;stroke:#000;stroke-miterlimit:10;stroke-width:10px;}</style></defs><path class="cls-1" d="M623.81,300.3c7.1-6.3,9.9-16.2,6.2-25a171.08,171.08,0,0,0-7.6-15.5l-3.1-5.4c-3-5-6.3-9.9-9.8-14.6-5.7-7.6-15.7-10.1-24.7-7.1l-28.2,9.3a126.73,126.73,0,0,0-36.2-20.9l-6.1-29c-1.9-9.3-9.1-16.7-18.5-17.8a148.61,148.61,0,0,0-20.1-1.3H475a166.9,166.9,0,0,0-20.1,1.2c-9.4,1.1-16.6,8.6-18.5,17.8l-6.1,29.1a127.72,127.72,0,0,0-36.2,20.9l-28.3-9.2c-9-3-19-.5-24.7,7.1-3.5,4.7-6.8,9.6-9.9,14.6l-3,5.3a160.79,160.79,0,0,0-7.6,15.6c-3.7,8.7-.9,18.6,6.2,25L349,320.2a128.79,128.79,0,0,0-1.7,20.8,131,131,0,0,0,1.7,20.9l-22.2,19.8c-7.1,6.3-9.9,16.2-6.2,25,2.3,5.3,4.8,10.5,7.6,15.6l3,5.2a144,144,0,0,0,9.9,14.6c5.7,7.6,15.7,10.1,24.7,7.1l28.2-9.3a126.73,126.73,0,0,0,36.2,20.9l6.1,29.1c1.9,9.3,9.1,16.7,18.5,17.8a174,174,0,0,0,40.8,0c9.4-1.1,16.6-8.6,18.5-17.8l6.1-29.1a127.72,127.72,0,0,0,36.2-20.9l28.2,9.3c9,3,19,.5,24.7-7.1a161.65,161.65,0,0,0,9.8-14.6l3.1-5.4a171.08,171.08,0,0,0,7.6-15.5c3.7-8.7.9-18.6-6.2-25l-22.2-19.8a129.32,129.32,0,0,0,0-41.8l22.2-19.8Zm-196.5,40.46a48,48,0,1,1,48,48A48,48,0,0,1,427.31,340.76ZM820,665.26c6.3,7.1,16.2,9.9,25,6.2a171.08,171.08,0,0,0,15.5-7.6l5.4-3.1c5-3,9.9-6.3,14.6-9.8,7.6-5.7,10.1-15.7,7.1-24.7l-9.3-28.2a126.73,126.73,0,0,0,20.9-36.2l29.1-6.1c9.3-1.9,16.7-9.1,17.8-18.5a174,174,0,0,0,0-40.8c-1.1-9.4-8.6-16.6-17.8-18.5l-29.1-6.2a127.72,127.72,0,0,0-20.9-36.2l9.3-28.2c3-9,.5-19-7.1-24.7-4.7-3.5-9.6-6.8-14.6-9.9l-5.3-3a160.79,160.79,0,0,0-15.6-7.6c-8.7-3.7-18.6-.9-25,6.2l-19.8,22.2a129.32,129.32,0,0,0-41.8,0l-19.8-22.2c-6.3-7.1-16.2-9.9-25-6.2-5.3,2.3-10.5,4.8-15.6,7.6l-5.2,3a144,144,0,0,0-14.6,9.9c-7.6,5.7-10.1,15.7-7.1,24.7l9.3,28.2a126.73,126.73,0,0,0-20.9,36.2l-29.1,6c-9.3,1.9-16.7,9.1-17.8,18.5a174,174,0,0,0,0,40.8c1.1,9.4,8.6,16.6,17.8,18.5l29.1,6.1a127.72,127.72,0,0,0,20.9,36.2l-9.3,28.2c-3,9-.5,19,7.1,24.7a161.65,161.65,0,0,0,14.6,9.8l5.4,3.1a171.08,171.08,0,0,0,15.5,7.6c8.7,3.7,18.6.9,25-6.2l19.8-22.2a129.32,129.32,0,0,0,41.8,0l19.8,22.2Zm-40.7-196.5a48,48,0,0,1,0,96h0a48,48,0,0,1,0-96Z" transform="translate(-313.98 -168)"/></svg>