<svg id="Layer_1" data-name="Layer 1" xmlns="http://www.w3.org/2000/svg" viewBox="0 0 770.31 617.17"><defs><style>.cls-1{fill:none;stroke:#f58125;stroke-miterlimit:10;stroke-width:20px;}</style></defs><path class="cls-1" d="M561,227.93c8.48-7.52,11.82-19.34,7.4-29.85a203.27,203.27,0,0,0-9.07-18.51l-3.7-6.45c-3.59-6-7.53-11.82-11.71-17.43-6.8-9.08-18.74-12.06-29.49-8.48l-33.67,11.1a151.56,151.56,0,0,0-43.23-24.95l-7.29-34.63C428,87.62,419.39,78.79,408.16,77.47a178.18,178.18,0,0,0-24-1.55h-.84a200.34,200.34,0,0,0-24,1.43c-11.22,1.32-19.82,10.27-22.09,21.26L330,133.36a152.75,152.75,0,0,0-43.23,24.95l-33.79-11c-10.75-3.58-22.69-.6-29.5,8.48-4.18,5.61-8.12,11.46-11.82,17.43L208,179.57A191.12,191.12,0,0,0,199,198.2c-4.42,10.39-1.07,22.21,7.41,29.85l26.5,23.65a154.08,154.08,0,0,0-2,24.83,156.84,156.84,0,0,0,2,25l-26.5,23.64c-8.48,7.53-11.83,19.35-7.41,29.86,2.75,6.33,5.73,12.54,9.08,18.63l3.58,6.2a171.15,171.15,0,0,0,11.82,17.44c6.81,9.07,18.75,12.06,29.5,8.48l33.67-11.11a151.35,151.35,0,0,0,43.23,25l7.28,34.75c2.27,11.1,10.87,19.94,22.09,21.25a206.76,206.76,0,0,0,48.72,0c11.23-1.31,19.83-10.27,22.09-21.25l7.29-34.75a152.54,152.54,0,0,0,43.23-25l33.67,11.11c10.75,3.58,22.69.59,29.5-8.48a192.15,192.15,0,0,0,11.7-17.44l3.7-6.44a206,206,0,0,0,9.08-18.51c4.41-10.39,1.07-22.21-7.41-29.86l-26.51-23.64a154.4,154.4,0,0,0,0-49.91l26.51-23.65ZM326.36,276.24a57.32,57.32,0,1,1,57.32,57.32A57.33,57.33,0,0,1,326.36,276.24ZM795.3,663.74c7.52,8.47,19.34,11.82,29.85,7.4a203.35,203.35,0,0,0,18.51-9.08l6.45-3.7c6-3.58,11.82-7.52,17.43-11.7,9.08-6.81,12.06-18.75,8.48-29.5l-11.1-33.67a151.42,151.42,0,0,0,25-43.23L924.62,533c11.11-2.27,19.94-10.87,21.26-22.09a208.2,208.2,0,0,0,0-48.72c-1.32-11.23-10.27-19.83-21.26-22.09l-34.75-7.41a152.75,152.75,0,0,0-25-43.23L876,355.77c3.58-10.75.6-22.69-8.48-29.49-5.61-4.18-11.46-8.12-17.43-11.83l-6.33-3.58a191.06,191.06,0,0,0-18.63-9.07c-10.39-4.42-22.21-1.08-29.85,7.4l-23.65,26.51a154.4,154.4,0,0,0-49.91,0L698.1,309.2c-7.53-8.48-19.35-11.82-29.86-7.4-6.33,2.74-12.54,5.73-18.63,9.07l-6.2,3.58A172.89,172.89,0,0,0,626,326.28c-9.07,6.8-12.06,18.74-8.48,29.49l11.11,33.67a151.35,151.35,0,0,0-25,43.23l-34.75,7.17c-11.1,2.27-19.94,10.86-21.25,22.09a206.76,206.76,0,0,0,0,48.72c1.31,11.22,10.27,19.82,21.25,22.09L603.64,540a152.41,152.41,0,0,0,25,43.23l-11.11,33.68c-3.58,10.74-.59,22.68,8.48,29.49a192.15,192.15,0,0,0,17.44,11.7l6.44,3.7a203.35,203.35,0,0,0,18.51,9.08c10.39,4.42,22.21,1.07,29.86-7.4L721.86,637a154.4,154.4,0,0,0,49.91,0l23.65,26.51ZM746.7,429.09a57.32,57.32,0,0,1,0,114.64h0a57.32,57.32,0,0,1,0-114.64Z" transform="translate(-187 -65.92)"/></svg>