<svg id="Layer_1" data-name="Layer 1" xmlns="http://www.w3.org/2000/svg" viewBox="0 0 553 553"><defs><style>.cls-1{fill:#fff;}.cls-2{fill:#f58125;}.cls-3{fill:#17234d;}.cls-4{fill:none;}</style></defs><circle class="cls-1" cx="276.5" cy="276.5" r="276.5"/><polygon class="cls-2" points="102 148 107.83 158.5 447.17 158.5 453 148 102 148"/><path class="cls-3" d="M505,222H654.5V436.5l-89-160h48v5h18v-36h-18v4h-94l145,262,146-262h-93v-4h-17v35h17v-4h46l-87,160V222H826l6.67-12H498.33Zm117.52,35.5a5,5,0,1,1-5,5A5,5,0,0,1,622.52,257.5Zm87,10.5a5,5,0,1,1,5-5A5,5,0,0,1,709.5,268ZM663,457.81V220.45a4.79,4.79,0,0,1,4,0V458a5,5,0,0,1,3,4.52,5.26,5.26,0,0,1-10.5,0A5,5,0,0,1,663,457.81Z" transform="translate(-388 -47)"/><circle class="cls-4" cx="234.52" cy="215.52" r="5.02"/><circle class="cls-4" cx="321.5" cy="215.98" r="5.02"/><path class="cls-4" d="M664.75,467.54a5.13,5.13,0,0,0,5.25-5,5,5,0,0,0-3-4.52V220.45a4.79,4.79,0,0,0-4,0V457.81a5,5,0,0,0-3.5,4.71A5.13,5.13,0,0,0,664.75,467.54Z" transform="translate(-388 -47)"/></svg>